<?xml version="1.0" encoding="UTF-8"?>
<svg width="24px" height="24px" viewBox="0 0 24 24" version="1.1" xmlns="http://www.w3.org/2000/svg" xmlns:xlink="http://www.w3.org/1999/xlink">
    <!-- Generator: Sketch 52.5 (67469) - http://www.bohemiancoding.com/sketch -->
    <title>Markets</title>
    <desc>Created with Sketch.</desc>
    <g id="Markets" stroke="none" stroke-width="1" fill="none" fill-rule="evenodd">
        <g id="Group-15" transform="translate(1.000000, 3.000000)" fill="#E64A19">
            <path d="M15.6785285,13.3559165 C15.6785285,13.2136193 15.6833581,13.0711736 15.6774139,12.9291733 C15.6669372,12.6776851 15.4730073,12.4866194 15.2407371,12.4914443 C15.0092099,12.496195 14.8277628,12.6770171 14.8218929,12.9244969 C14.8152057,13.2088686 14.8155029,13.4935372 14.8214471,13.7779832 C14.8268712,14.0349644 14.9942008,14.2033902 15.2357588,14.2099966 C15.4795459,14.216603 15.6657484,14.0397893 15.677191,13.7825854 C15.683581,13.6405851 15.6783799,13.4981395 15.6785285,13.3559165 Z M1.96663809,16.1324563 L13.418984,16.1324563 L13.418984,15.9165238 C13.418984,14.561991 13.4175723,13.2075325 13.4195785,11.8529997 C13.4204701,11.2285103 13.5866109,10.6585049 13.9835358,10.163471 C14.6354675,9.35051384 15.7456981,9.01343946 16.7436573,9.33136273 C17.7442915,9.65010252 18.4743153,10.5421879 18.5002469,11.5852554 C18.5355407,13.0068912 18.5174852,14.4298632 18.5223148,15.8522414 C18.522612,15.9381987 18.5223148,16.024156 18.5223148,16.1274087 L20.0635753,16.1274087 L20.0635753,8.11615801 C19.7113063,8.11615801 19.3590373,8.14503313 19.0136784,8.1087351 C18.6073914,8.06597913 18.2455374,7.87877332 17.9239554,7.62646859 C17.8729094,7.5864591 17.8200059,7.51007735 17.8195601,7.45017446 C17.8136159,6.51006281 17.8159936,5.56995116 17.8171824,4.62983951 C17.8171824,4.61224721 17.8253557,4.59458069 17.8326374,4.56533442 L22.0076305,4.56533442 C22.0898093,5.71395563 22.0655123,6.82568497 21.0396152,7.62832431 C20.9822536,7.67308447 20.9529783,7.78561579 20.9528297,7.86659975 C20.9482229,10.1117333 20.9491889,12.3569412 20.9491889,14.6020747 C20.9491889,15.2206259 20.9498576,15.8391028 20.9488917,16.4575797 C20.9482972,16.8501033 20.8038528,16.9993038 20.4142096,16.999378 C14.1549521,17.0001945 7.89562023,17.0001945 1.636437,16.9994522 C1.23111589,16.9994522 1.08488822,16.846466 1.08481392,16.4321192 C1.08459101,13.5869917 1.08369938,10.7419385 1.08771173,7.896811 C1.08793463,7.75280653 1.04290721,7.66365737 0.931304589,7.57153905 C0.357985131,7.09818003 0.0416786342,6.48586412 0.00853964015,5.74156886 C-0.00869858098,5.35394446 0.00549323038,4.9649097 0.00549323038,4.56481481 L4.22900601,4.56481481 C4.23160661,4.62056087 4.23680779,4.6792761 4.23680779,4.73799132 C4.23732791,5.61627012 4.23435581,6.49454892 4.24044863,7.3727535 C4.24126595,7.49404386 4.19779889,7.56515534 4.10551496,7.63225846 C3.51688915,8.05996657 2.86778096,8.23774529 2.14399859,8.11927563 C2.10744167,8.11326307 2.07014172,8.1110362 2.03313899,8.10940316 C2.01560356,8.10866087 1.99777092,8.11348576 1.96663809,8.11756836 L1.96663809,16.1324563 Z" id="Fill-1"></path>
            <path d="M21.7222222,3.77777778 L0.157407407,3.77777778 C0.213926897,3.67384451 0.264001831,3.57778609 0.317632381,3.48373354 C0.921124228,2.42686812 1.52854207,1.37223144 2.12618196,0.312097212 C2.25018409,0.0922697997 2.41396468,7.45246527e-05 2.66374675,0.000223106885 C8.16835981,0.00356620711 13.6730469,0.00356620711 19.17766,2.33536588e-07 C19.4167011,-0.000148348696 19.5906301,0.0705767938 19.7135951,0.284535208 C20.3693842,1.425201 21.0303585,2.56289516 21.6893328,3.70177797 C21.6982218,3.71723052 21.7037034,3.73461464 21.7222222,3.77777778" id="Fill-4"></path>
            <path d="M7.71779469,9.28716636 C8.84878814,9.28716636 9.97978159,9.28679261 11.1108488,9.28739061 C11.4984936,9.28761486 11.6473552,9.43659046 11.6475765,9.82678247 C11.6483141,11.253151 11.6483879,12.6795196 11.6475027,14.1058881 C11.6472814,14.4822515 11.4914858,14.6384778 11.1197008,14.6385525 C8.85151751,14.639001 6.5833342,14.639001 4.31522465,14.6385525 C3.92839126,14.6384778 3.77893961,14.4889042 3.77864454,14.0963202 C3.77746427,12.6761558 3.77753804,11.2560662 3.77857077,9.8359019 C3.77886584,9.431657 3.92344888,9.28754011 4.32474058,9.28731586 C5.45573403,9.28679261 6.58672748,9.28716636 7.71779469,9.28716636" id="Fill-7"></path>
            <path d="M9.30395907,4.56481481 L12.7375117,4.56481481 C12.7408388,4.63342791 12.7463589,4.69425937 12.7463589,4.75509084 C12.7469638,5.62723291 12.7439391,6.49930016 12.7499885,7.37136741 C12.7508203,7.49258139 12.7065086,7.56411261 12.6162216,7.63549417 C11.6919519,8.36681853 10.3219185,8.37011076 9.39674144,7.63519488 C9.34532171,7.59426646 9.29117976,7.51847031 9.29080167,7.45861155 C9.28482791,6.51179568 9.28747451,5.5649798 9.28860877,4.61816393 C9.28860877,4.60641665 9.29511185,4.59466937 9.30395907,4.56481481" id="Fill-9"></path>
            <path d="M13.5519785,4.56481481 L16.8294709,4.56481481 C16.8328937,4.63239837 16.8390838,4.69781146 16.8390838,4.7632994 C16.8397393,5.62983579 16.8367534,6.49644702 16.8425794,7.36290857 C16.8434533,7.48939385 16.8007779,7.56633282 16.7088726,7.64334663 C15.8522313,8.36146865 14.4866883,8.36820455 13.6369654,7.64903473 C13.5882454,7.60787088 13.5416373,7.52928536 13.5412732,7.46783896 C13.5353016,6.53274605 13.5371222,5.5975783 13.5379961,4.6624854 C13.5379961,4.63254805 13.5462981,4.60261071 13.5519785,4.56481481" id="Fill-11"></path>
            <path d="M5.19803432,4.56481481 L8.49744435,4.56481481 L8.49744435,4.7397603 C8.49744435,5.61777591 8.49518872,6.49579151 8.49999104,7.37380711 C8.5006459,7.49801019 8.46550167,7.57767353 8.36763627,7.65404871 C7.47142206,8.35308335 6.25228842,8.36317204 5.35141741,7.67803739 C5.23870849,7.59232083 5.193232,7.49950481 5.19446896,7.3519109 C5.2017452,6.4926528 5.19803432,5.63331997 5.19803432,4.77398714 L5.19803432,4.56481481 Z" id="Fill-13"></path>
        </g>
    </g>
</svg>