<?xml version="1.0" encoding="UTF-8"?>
<svg width="24px" height="24px" viewBox="0 0 24 24" version="1.1" xmlns="http://www.w3.org/2000/svg" xmlns:xlink="http://www.w3.org/1999/xlink">
    <!-- Generator: Sketch 52.5 (67469) - http://www.bohemiancoding.com/sketch -->
    <title>Map_icon</title>
    <desc>Created with Sketch.</desc>
    <g id="Map_icon" stroke="none" stroke-width="1" fill="none" fill-rule="evenodd">
        <g id="Group-8" fill="#222222">
            <path d="M7.59578507,20.3210174 L7.59578507,1.34897208 C5.40184478,2.11751547 3.22993433,2.87836075 1.0549791,3.6403834 L1.0549791,22.6233872 C3.24900896,21.8511306 5.4267403,21.0845796 7.59578507,20.3210174 M10.8837851,0.999477736 C10.6621433,1.30269283 10.4500836,1.59286642 10.2287104,1.89580981 C9.71181493,1.71802868 9.1926806,1.53943245 8.64318806,1.3505117 L8.64318806,1.6147834 C8.64318806,7.76503245 8.64399403,13.9152815 8.63942687,20.0656211 C8.63924776,20.2476589 8.68106866,20.3392211 8.86384478,20.4027985 C10.8914866,21.1085796 12.9157254,21.8245947 14.9410388,22.5373494 C15.0103522,22.5617117 15.0815463,22.5807306 15.1830985,22.6118853 L15.1830985,14.432957 C15.3812776,14.5775909 15.5350388,14.6898023 15.7020537,14.8117947 C15.8732776,14.7008513 16.0467403,14.58864 16.2502925,14.4568664 L16.2502925,22.6219381 C16.358203,22.5877947 16.4341433,22.5663306 16.5083821,22.5398853 C18.5456955,21.8163532 20.582203,21.0903758 22.6212179,20.3719155 C22.7744418,20.3179381 22.8243224,20.2454853 22.8242328,20.0831004 C22.8203821,13.9026023 22.8210985,7.72219472 22.8210985,1.5416966 L22.8210985,1.29028528 C22.2666806,1.48473057 21.7485313,1.66640604 21.2279642,1.84898717 C21.0095463,1.55138717 20.7969493,1.26175698 20.5735164,0.957364528 C20.7250388,0.903115472 20.8703821,0.851130566 21.0157254,0.798964528 C21.7041134,0.551990943 22.3921433,0.304021132 23.0809791,0.0584966038 C23.5196955,-0.0979109434 23.8764716,0.141364528 23.9106806,0.612851321 C23.9150687,0.672896604 23.9118448,0.733575849 23.9118448,0.79389283 C23.9118448,7.35168906 23.9119343,13.9094853 23.9118448,20.4672815 C23.9118448,20.9713721 23.8373373,21.0790551 23.3701433,21.2452438 C20.9365612,22.1112362 18.5023522,22.9755079 16.0696657,23.8442174 C15.8544716,23.9210174 15.6549493,23.9190249 15.4390388,23.8422249 C13.0838149,23.0049419 10.7262627,22.1744513 8.37103881,21.3369872 C8.2068,21.2784815 8.06369552,21.2788438 7.89954627,21.3373494 C5.55865075,22.1707381 3.21605373,22.9986023 0.873367164,23.826557 C0.775307463,23.8611532 0.674113433,23.896474 0.571934328,23.9067079 C0.275426866,23.9362325 0.0304119403,23.7240362 0.00497910448,23.4250777 C-0.00200597015,23.3425721 0.000411940299,23.2591608 0.000411940299,23.1762023 C0.000232835821,16.6108891 0.000232835821,10.0454853 0.00032238806,3.48017208 C0.00032238806,2.95905509 0.0837850746,2.83905509 0.56441194,2.66960604 C2.94981493,1.82824755 5.33575522,0.988790943 7.71972537,0.143356981 C7.9709194,0.05424 8.20545672,0.0460890566 8.45826269,0.137289057 C9.19482985,0.403009811 9.93623284,0.654964528 10.6753075,0.91344 C10.7441731,0.937530566 10.8103522,0.969047547 10.8837851,0.999477736" id="Fill-1"></path>
            <path d="M11.3353103,5.48565923 C11.4186887,5.9177487 11.4567808,6.36429299 11.5929164,6.77936601 C12.3447053,9.07118757 13.8666376,10.8067728 15.7083407,12.3049513 C15.8099811,12.3875634 15.8905925,12.3903995 15.9897427,12.3044939 C16.1922858,12.1292063 16.403222,11.9635247 16.6065952,11.789152 C17.9969114,10.5973609 19.1089614,9.19643221 19.858629,7.52388095 C20.2511715,6.6479003 20.4227243,5.73715488 20.2536617,4.78414282 C19.8965366,2.77089684 17.9397271,0.800649385 15.2867449,1.11993633 C13.1118049,1.38167843 11.3895432,3.30343818 11.3353103,5.48565923 M10.2857941,5.49261219 C10.3850365,3.26034817 11.4102955,1.60655159 13.4257651,0.571110433 C14.3618351,0.0901673213 15.3685553,-0.0745993793 16.3978725,0.0302438405 C17.9222951,0.185404487 19.2010096,0.866793929 20.1617979,2.05702978 C21.5159589,3.73479576 21.7686765,5.60687849 20.9954896,7.59889966 C20.0956671,9.91706925 18.5322301,11.7362729 16.5650905,13.2362812 C16.3765668,13.380006 16.1796499,13.513027 15.9936165,13.6598624 C15.889578,13.7418341 15.8100734,13.7244517 15.7097242,13.652635 C13.6584683,12.1847384 11.9622162,10.4148458 10.9105786,8.09868894 C10.5353759,7.27229382 10.2805369,6.41488487 10.2857941,5.49261219" id="Fill-4"></path>
            <path d="M15.037214,5.97802971 C15.0300161,6.3722426 15.332331,6.7043948 15.7107388,6.71816717 C16.0795494,6.73151447 16.4146836,6.4175554 16.4286511,6.04561635 C16.44279,5.66908651 16.1011433,5.29867772 15.7331897,5.29145147 C15.3529823,5.28397018 15.0443263,5.58840761 15.037214,5.97802971 M14.0002772,6.00302401 C13.9838247,5.11547117 14.7013085,4.30460153 15.7273627,4.28598332 C16.6647276,4.26889538 17.4298552,5.06820303 17.4285698,6.00361912 C17.4272845,6.93546459 16.6462185,7.71572896 15.716223,7.71428371 C14.790255,7.71275345 14.0020767,6.92670808 14.0002772,6.00302401" id="Fill-6"></path>
        </g>
    </g>
</svg>