<?xml version="1.0" encoding="UTF-8"?>
<svg width="82px" height="78px" viewBox="0 0 82 78" version="1.1" xmlns="http://www.w3.org/2000/svg" xmlns:xlink="http://www.w3.org/1999/xlink">
    <!-- Generator: Sketch 52.4 (67378) - http://www.bohemiancoding.com/sketch -->
    <title>Send Button</title>
    <desc>Created with Sketch.</desc>
    <g id="Send-Button" stroke="none" stroke-width="1" fill="none" fill-rule="evenodd">
        <g transform="translate(8.000000, 5.000000)">
            <g id="Border-Circle" transform="translate(34.000000, 34.500000) rotate(180.000000) translate(-34.000000, -34.500000) " stroke="#FFFFFF" stroke-width="4">
                <rect x="0" y="0" width="68" height="69" rx="34"></rect>
            </g>
            <g id="left-arrow" transform="translate(34.000000, 35.000000) rotate(270.000000) translate(-34.000000, -35.000000) translate(20.000000, 23.000000)" fill="#FFFFFF">
                <path d="M26.4260816,9.7340916 L26.469789,9.74395818 L7.73346783,9.74395818 L13.6234828,3.65228116 C13.9119055,3.35487407 14.0701169,2.95198849 14.0701169,2.52913481 C14.0701169,2.10628114 13.9119055,1.70621458 13.6234828,1.40810274 L12.7069952,0.461850181 C12.4188001,0.164443096 12.0347677,0 11.6252393,0 C11.2154833,0 10.8312233,0.163268502 10.5430282,0.460675587 L0.446412506,10.8790854 C0.157079235,11.1776671 -0.00113211229,11.5753844 6.09884614e-06,11.998473 C-0.00113211229,12.4239108 0.157079235,12.8218631 0.446412506,13.1199749 L10.5430282,23.5393244 C10.8312233,23.8364966 11.2152557,24 11.6252393,24 C12.0347677,24 12.4188001,23.8362617 12.7069952,23.5393244 L13.6234828,22.5930719 C13.9119055,22.2961346 14.0701169,21.8995918 14.0701169,21.4767382 C14.0701169,21.0541194 13.9119055,20.6784844 13.6234828,20.3813122 L7.6669963,14.255572 L26.4470247,14.255572 C27.2908945,14.255572 28,13.5050067 28,12.6346329 L28,11.296301 C28,10.4259272 27.2699514,9.7340916 26.4260816,9.7340916 Z" id="Path"></path>
            </g>
        </g>
    </g>
</svg>