<?xml version="1.0" encoding="UTF-8"?>
<svg width="40px" height="40px" viewBox="0 0 40 40" version="1.1" xmlns="http://www.w3.org/2000/svg" xmlns:xlink="http://www.w3.org/1999/xlink">
    <!-- Generator: Sketch 52.5 (67469) - http://www.bohemiancoding.com/sketch -->
    <title>Price</title>
    <desc>Created with Sketch.</desc>
    <g id="Price" stroke="none" stroke-width="1" fill="none" fill-rule="evenodd">
        <path d="M21.4653276,31.5490196 C21.4653276,30.7944536 21.4806439,30.0670671 21.457736,29.3411606 C21.4485462,29.0510671 21.5427084,28.9397928 21.8161382,28.8694223 C24.1954974,28.2568083 25.5361427,26.0536586 25.5862205,24.0069926 C25.6406933,21.7854093 24.5889274,20.1820911 22.6361614,19.2330979 C21.8675479,18.8595823 21.0057044,18.6678461 20.1720963,18.4485268 C19.4864573,18.2682275 18.8760681,18.0172886 18.4434816,17.4126132 C17.8837029,16.630195 17.9034143,15.8254412 18.5281876,15.1957392 C19.457556,14.2588557 21.4203109,14.4074007 22.2010444,15.4678028 C22.2641743,15.5536468 22.3847072,15.6701686 22.4628871,15.6591353 C23.3381823,15.5352132 24.210281,15.3889555 25.0770523,15.249829 C25.0827792,15.2028705 25.0913031,15.1801312 25.0866416,15.1606212 C25.0738558,15.1062623 25.0577404,15.0524416 25.0390944,14.9996974 C24.495298,13.4562547 23.3657517,12.5278479 21.8864602,11.9993288 C21.5578915,11.8818651 21.4404219,11.7547138 21.4558714,11.4000355 C21.4874364,10.6758781 21.4653276,9.94943346 21.4653276,9.19607843 L20.1313415,9.19607843 L18.7918949,9.19607843 C18.7918949,10.045907 18.7847029,10.8401658 18.7969559,11.6341554 C18.8000192,11.8354448 18.73023,11.9172522 18.5505627,11.9917939 C18.1418164,12.161329 17.7274763,12.3322097 17.3501617,12.5610822 C15.6397934,13.5983413 14.8689157,15.619308 15.480104,17.5355935 C16.0908927,19.450668 17.4475203,20.5616614 19.3452807,21.0604446 C20.0193325,21.2376492 20.7073689,21.3964203 21.3462598,21.6666001 C23.0241308,22.3760913 23.1675716,24.1387187 22.43625,25.2026191 C21.809479,26.1143415 20.9042171,26.3975728 19.8673679,26.2383981 C18.8940482,26.0890457 18.1540695,25.5964519 17.8775763,24.5400864 C16.9795064,24.6712744 16.0829016,24.8019241 15.1568627,24.9371485 C15.1926896,25.1286156 15.2120015,25.2942488 15.2552868,25.4530198 C15.7070521,27.1112351 16.7949113,28.1684079 18.3658344,28.7311031 C18.7111845,28.8547561 18.8166674,29.0031667 18.8012179,29.3622852 C18.7701856,30.0855006 18.7918949,30.8110035 18.7918949,31.5490196 L21.4653276,31.5490196 Z M38.9999738,20.0165524 C38.9827,30.4831701 30.4092149,39.0392705 19.9782539,38.9998644 C9.48062679,38.9603235 0.945872926,30.4058426 1.00025848,19.9779561 C1.0550489,9.45668279 9.55066676,0.978179939 20.0160404,1.00004218 C30.498418,1.02190443 39.0172476,9.55546775 38.9999738,20.0165524 Z" id="Fill-1" fill="#E64A19"></path>
    </g>
</svg>
