<?xml version="1.0" encoding="UTF-8"?>
<svg width="24px" height="24px" viewBox="0 0 24 24" version="1.1" xmlns="http://www.w3.org/2000/svg" xmlns:xlink="http://www.w3.org/1999/xlink">
    <!-- Generator: Sketch 52.5 (67469) - http://www.bohemiancoding.com/sketch -->
    <title>Guide</title>
    <desc>Created with Sketch.</desc>
    <g id="Guide" stroke="none" stroke-width="1" fill="none" fill-rule="evenodd">
        <g id="Group" transform="translate(5.000000, 2.000000)">
            <g id="Group-4" fill="#E64A19">
                <path d="M13.8382284,15.9383186 L13.6733249,15.9383186 C9.92473932,15.9383186 6.1762275,15.9368936 2.42771569,15.9398936 C1.92577443,15.9403436 1.53037486,16.1764379 1.24063161,16.5824032 C0.884262907,17.0817412 0.84560096,17.6290031 1.11763645,18.1704902 C1.40243628,18.7374766 1.88010316,19.0356695 2.51566424,19.0359695 C6.22123473,19.0376194 9.92673144,19.0367945 13.6322282,19.0364195 C13.6977469,19.0363445 13.7632656,19.0303446 13.8382284,19.0266697 L13.8382284,15.9383186 Z M14.7602864,13.1837095 L14.7602864,13.4214538 C14.7602864,15.4147561 14.7535722,17.4080584 14.7658938,19.4012857 C14.7684024,19.8032761 14.5674193,20.0009714 14.1793242,19.9999964 C10.2881173,19.9904716 6.39691049,19.9942215 2.50577741,19.9942215 C1.10671666,19.9942215 0.00772870018,18.9065226 0.0055890123,17.4801317 C-0.0018630041,12.493801 -0.0018630041,7.50747035 0.0055890123,2.52121467 C0.00772870018,1.07764921 1.097789,7.49982053e-05 2.5162545,0 C6.40746136,0 10.2986682,0 14.1898013,7.49982053e-05 C14.6226823,7.49982053e-05 14.7602126,0.140621635 14.7602864,0.583036048 C14.7603601,1.9014295 14.7602864,3.21989795 14.7602864,4.5382914 L14.7602864,13.1837095 Z" id="Fill-1"></path>
            </g>
            <circle id="Oval" fill="#FFFFFF" cx="7.5" cy="8.5" r="3.5"></circle>
            <path d="M7.60917969,6 C7.74589912,6 7.86267855,6.04842074 7.95952148,6.14526367 C8.05636442,6.2421066 8.10478516,6.35888604 8.10478516,6.49560547 C8.10478516,6.6323249 8.05636442,6.74910433 7.95952148,6.84594727 C7.86267855,6.9427902 7.74589912,6.99121094 7.60917969,6.99121094 C7.47246025,6.99121094 7.35568082,6.9427902 7.25883789,6.84594727 C7.16199496,6.74910433 7.11357422,6.6323249 7.11357422,6.49560547 C7.11357422,6.35888604 7.16199496,6.2421066 7.25883789,6.14526367 C7.35568082,6.04842074 7.47246025,6 7.60917969,6 Z M7.16826172,11.0791016 L7.16826172,8.11914062 L6.7,8.11914062 L6.7,7.41845703 L8.03300781,7.41845703 L8.03300781,11.0791016 L7.16826172,11.0791016 Z" id="i" fill="#E64A19"></path>
        </g>
    </g>
</svg>