<?xml version="1.0" encoding="UTF-8"?>
<svg width="81px" height="44px" viewBox="0 0 81 44" version="1.1" xmlns="http://www.w3.org/2000/svg" xmlns:xlink="http://www.w3.org/1999/xlink">
    <!-- Generator: Sketch 52.4 (67378) - http://www.bohemiancoding.com/sketch -->
    <title>Check Button</title>
    <desc>Created with Sketch.</desc>
    <g id="Check-Button" stroke="none" stroke-width="1" fill="none" fill-rule="evenodd">
        <g transform="translate(40.500000, 22.000000) rotate(180.000000) translate(-40.500000, -22.000000) ">
            <g id="Oval-Button" fill="#FFFFFF">
                <rect x="0" y="0" width="81" height="44" rx="22"></rect>
            </g>
            <g id="checked" transform="translate(39.886364, 21.681159) rotate(-180.000000) translate(-39.886364, -21.681159) translate(20.863636, 7.014493)" fill="#91DC5A">
                <path d="M0.438986014,16.1333333 C0.146328671,15.84 0,15.4 0,15.1066667 C0,14.8133333 0.146328671,14.3733333 0.438986014,14.08 L2.48758741,12.0266667 C3.0729021,11.44 3.95087413,11.44 4.53618881,12.0266667 L4.68251748,12.1733333 L12.7305944,20.8266667 C13.0232517,21.12 13.4622378,21.12 13.7548951,20.8266667 L33.3629371,0.44 L33.5092657,0.44 C34.0945804,-0.146666667 34.9725524,-0.146666667 35.5578671,0.44 L37.6064685,2.49333333 C38.1917832,3.08 38.1917832,3.96 37.6064685,4.54666667 L14.1938811,28.8933333 C13.9012238,29.1866667 13.6085664,29.3333333 13.1695804,29.3333333 C12.7305944,29.3333333 12.4379371,29.1866667 12.1452797,28.8933333 L0.731643357,16.5733333 L0.438986014,16.1333333 Z" id="Path"></path>
            </g>
        </g>
    </g>
</svg>