<?xml version="1.0" encoding="UTF-8"?>
<svg width="81px" height="44px" viewBox="0 0 81 44" version="1.1" xmlns="http://www.w3.org/2000/svg" xmlns:xlink="http://www.w3.org/1999/xlink">
    <!-- Generator: Sketch 52.4 (67378) - http://www.bohemiancoding.com/sketch -->
    <title>X Button</title>
    <desc>Created with Sketch.</desc>
    <g id="X-Button" stroke="none" stroke-width="1" fill="none" fill-rule="evenodd">
        <g transform="translate(40.500000, 22.000000) rotate(180.000000) translate(-40.500000, -22.000000) ">
            <g id="Oval-Button" fill="#FFFFFF">
                <rect x="0" y="0" width="81" height="44" rx="22"></rect>
            </g>
            <g id="cancel" transform="translate(27.613636, 8.289855)" fill="#FF2626">
                <path d="M16.5933998,13.8193369 C16.3580324,13.5747469 16.3580324,13.2078618 16.5933998,12.9632718 L25.4196762,3.79114552 C25.6550436,3.54655549 25.7727273,3.17967044 25.7727273,2.93508041 C25.7727273,2.69049037 25.6550436,2.32360532 25.4196762,2.07901529 L23.7721046,0.366885051 C23.5367372,0.122295017 23.1836862,0 22.9483188,0 C22.5952677,0 22.3599004,0.122295017 22.124533,0.366885051 L13.2982565,9.53901132 C13.0628892,9.78360135 12.7098381,9.78360135 12.4744707,9.53901132 L3.64819427,0.366885051 C3.4128269,0.122295017 3.05977584,0 2.82440847,0 C2.5890411,0 2.23599004,0.122295017 2.00062267,0.366885051 L0.353051059,2.07901529 C0.117683686,2.32360532 0,2.69049037 0,2.93508041 C0,3.17967044 0.117683686,3.54655549 0.353051059,3.79114552 L9.17932752,12.9632718 C9.41469489,13.2078618 9.41469489,13.5747469 9.17932752,13.8193369 L0.353051059,22.9914632 C0.117683686,23.2360532 0,23.6029383 0,23.8475283 C0,24.0921183 0.117683686,24.4590034 0.353051059,24.7035934 L2.00062267,26.4157236 C2.23599004,26.6603137 2.5890411,26.7826087 2.82440847,26.7826087 C3.05977584,26.7826087 3.4128269,26.6603137 3.64819427,26.4157236 L12.4744707,17.2435974 C12.7098381,16.9990073 13.0628892,16.9990073 13.2982565,17.2435974 L22.124533,26.4157236 C22.3599004,26.6603137 22.7129514,26.7826087 22.9483188,26.7826087 C23.1836862,26.7826087 23.5367372,26.6603137 23.7721046,26.4157236 L25.4196762,24.7035934 C25.6550436,24.4590034 25.7727273,24.0921183 25.7727273,23.8475283 C25.7727273,23.6029383 25.6550436,23.2360532 25.4196762,22.9914632 L16.5933998,13.8193369 Z" id="Path"></path>
            </g>
        </g>
    </g>
</svg>